<svg xmlns="http://www.w3.org/2000/svg" width="600" height="400"><path d="M340,181L325,280L387,236Z" fill="rgb(172,224,179)" stroke="rgb(172,224,179)" stroke-width="1.51"/><path d="M340,181L169,159L325,280Z" fill="rgb(194,223,164)" stroke="rgb(194,223,164)" stroke-width="1.51"/><path d="M461,41L310,93L340,181Z" fill="rgb(196,215,167)" stroke="rgb(196,215,167)" stroke-width="1.51"/><path d="M387,236L499,190L340,181Z" fill="rgb(169,223,178)" stroke="rgb(169,223,178)" stroke-width="1.51"/><path d="M325,280L457,321L387,236Z" fill="rgb(147,224,186)" stroke="rgb(147,224,186)" stroke-width="1.51"/><path d="M457,321L499,190L387,236Z" fill="rgb(146,221,178)" stroke="rgb(146,221,178)" stroke-width="1.51"/><path d="M310,93L169,159L340,181Z" fill="rgb(212,221,152)" stroke="rgb(212,221,152)" stroke-width="1.51"/><path d="M325,280L385,416L457,321Z" fill="rgb(133,216,169)" stroke="rgb(133,216,169)" stroke-width="1.51"/><path d="M302,453L385,416L325,280Z" fill="rgb(136,209,150)" stroke="rgb(136,209,150)" stroke-width="1.51"/><path d="M457,321L524,280L499,190Z" fill="rgb(134,217,173)" stroke="rgb(134,217,173)" stroke-width="1.51"/><path d="M557,401L524,280L457,321Z" fill="rgb(113,206,151)" stroke="rgb(113,206,151)" stroke-width="1.51"/><path d="M169,159L151,341L325,280Z" fill="rgb(191,223,167)" stroke="rgb(191,223,167)" stroke-width="1.51"/><path d="M151,341L302,453L325,280Z" fill="rgb(159,212,147)" stroke="rgb(159,212,147)" stroke-width="1.51"/><path d="M499,190L461,41L340,181Z" fill="rgb(186,220,160)" stroke="rgb(186,220,160)" stroke-width="1.51"/><path d="M537,51L461,41L499,190Z" fill="rgb(176,204,153)" stroke="rgb(176,204,153)" stroke-width="1.51"/><path d="M310,93L141,84L169,159Z" fill="rgb(225,215,145)" stroke="rgb(225,215,145)" stroke-width="1.51"/><path d="M461,41L300,-2L310,93Z" fill="rgb(195,199,174)" stroke="rgb(195,199,174)" stroke-width="1.51"/><path d="M169,159L57,210L151,341Z" fill="rgb(198,209,168)" stroke="rgb(198,209,168)" stroke-width="1.51"/><path d="M200,-6L141,84L310,93Z" fill="rgb(220,200,154)" stroke="rgb(220,200,154)" stroke-width="1.51"/><path d="M664,165L537,51L499,190Z" fill="rgb(166,209,135)" stroke="rgb(166,209,135)" stroke-width="1.51"/><path d="M461,41L449,-74L300,-2Z" fill="rgb(183,188,185)" stroke="rgb(183,188,185)" stroke-width="1.51"/><path d="M300,-2L200,-6L310,93Z" fill="rgb(209,193,165)" stroke="rgb(209,193,165)" stroke-width="1.51"/><path d="M524,280L664,165L499,190Z" fill="rgb(142,210,150)" stroke="rgb(142,210,150)" stroke-width="1.51"/><path d="M385,416L557,401L457,321Z" fill="rgb(110,204,147)" stroke="rgb(110,204,147)" stroke-width="1.51"/><path d="M431,532L557,401L385,416Z" fill="rgb(106,203,143)" stroke="rgb(106,203,143)" stroke-width="1.51"/><path d="M302,453L431,532L385,416Z" fill="rgb(123,207,150)" stroke="rgb(123,207,150)" stroke-width="1.51"/><path d="M151,341L203,477L302,453Z" fill="rgb(158,206,131)" stroke="rgb(158,206,131)" stroke-width="1.51"/><path d="M141,84L57,210L169,159Z" fill="rgb(220,207,152)" stroke="rgb(220,207,152)" stroke-width="1.51"/><path d="M151,341L76,447L203,477Z" fill="rgb(160,196,135)" stroke="rgb(160,196,135)" stroke-width="1.51"/><path d="M15,110L57,210L141,84Z" fill="rgb(222,197,155)" stroke="rgb(222,197,155)" stroke-width="1.51"/><path d="M286,544L431,532L302,453Z" fill="rgb(131,207,146)" stroke="rgb(131,207,146)" stroke-width="1.51"/><path d="M203,477L286,544L302,453Z" fill="rgb(148,207,137)" stroke="rgb(148,207,137)" stroke-width="1.51"/><path d="M57,210L39,350L151,341Z" fill="rgb(181,198,168)" stroke="rgb(181,198,168)" stroke-width="1.51"/><path d="M203,477L193,554L286,544Z" fill="rgb(156,206,132)" stroke="rgb(156,206,132)" stroke-width="1.51"/><path d="M556,-22L449,-74L461,41Z" fill="rgb(171,182,169)" stroke="rgb(171,182,169)" stroke-width="1.51"/><path d="M300,-2L204,-117L200,-6Z" fill="rgb(214,185,166)" stroke="rgb(214,185,166)" stroke-width="1.51"/><path d="M537,51L556,-22L461,41Z" fill="rgb(168,185,161)" stroke="rgb(168,185,161)" stroke-width="1.51"/><path d="M680,318L664,165L524,280Z" fill="rgb(120,208,151)" stroke="rgb(120,208,151)" stroke-width="1.51"/><path d="M642,-21L556,-22L537,51Z" fill="rgb(159,175,152)" stroke="rgb(159,175,152)" stroke-width="1.51"/><path d="M39,350L76,447L151,341Z" fill="rgb(163,190,146)" stroke="rgb(163,190,146)" stroke-width="1.51"/><path d="M57,210L-89,311L39,350Z" fill="rgb(179,186,179)" stroke="rgb(179,186,179)" stroke-width="1.51"/><path d="M38,-72L15,110L141,84Z" fill="rgb(216,171,169)" stroke="rgb(216,171,169)" stroke-width="1.51"/><path d="M431,532L542,517L557,401Z" fill="rgb(97,198,133)" stroke="rgb(97,198,133)" stroke-width="1.51"/><path d="M557,401L680,318L524,280Z" fill="rgb(101,200,138)" stroke="rgb(101,200,138)" stroke-width="1.51"/><path d="M76,447L193,554L203,477Z" fill="rgb(160,199,133)" stroke="rgb(160,199,133)" stroke-width="1.51"/><path d="M286,544L646,579L431,532Z" fill="rgb(106,203,144)" stroke="rgb(106,203,144)" stroke-width="1.51"/><path d="M656,395L680,318L557,401Z" fill="rgb(88,194,125)" stroke="rgb(88,194,125)" stroke-width="1.51"/><path d="M542,517L656,395L557,401Z" fill="rgb(83,191,119)" stroke="rgb(83,191,119)" stroke-width="1.51"/><path d="M200,-6L38,-72L141,84Z" fill="rgb(216,172,168)" stroke="rgb(216,172,168)" stroke-width="1.51"/><path d="M314,-170L204,-117L300,-2Z" fill="rgb(207,186,170)" stroke="rgb(207,186,170)" stroke-width="1.51"/><path d="M449,-74L314,-170L300,-2Z" fill="rgb(192,188,180)" stroke="rgb(192,188,180)" stroke-width="1.51"/><path d="M521,-176L435,-136L449,-74Z" fill="rgb(174,183,173)" stroke="rgb(174,183,173)" stroke-width="1.51"/><path d="M664,165L692,89L537,51Z" fill="rgb(160,198,134)" stroke="rgb(160,198,134)" stroke-width="1.51"/><path d="M556,-22L521,-176L449,-74Z" fill="rgb(168,180,165)" stroke="rgb(168,180,165)" stroke-width="1.51"/><path d="M755,93L692,89L664,165Z" fill="rgb(161,202,131)" stroke="rgb(161,202,131)" stroke-width="1.51"/><path d="M692,89L642,-21L537,51Z" fill="rgb(158,182,143)" stroke="rgb(158,182,143)" stroke-width="1.51"/><path d="M15,110L-57,169L57,210Z" fill="rgb(212,186,166)" stroke="rgb(212,186,166)" stroke-width="1.51"/><path d="M-102,479L-21,526L76,447Z" fill="rgb(156,173,149)" stroke="rgb(156,173,149)" stroke-width="1.51"/><path d="M-98,119L-57,169L15,110Z" fill="rgb(219,185,161)" stroke="rgb(219,185,161)" stroke-width="1.51"/><path d="M435,-136L314,-170L449,-74Z" fill="rgb(184,189,186)" stroke="rgb(184,189,186)" stroke-width="1.51"/><path d="M78,-145L38,-72L204,-117Z" fill="rgb(215,168,170)" stroke="rgb(215,168,170)" stroke-width="1.51"/><path d="M204,-117L38,-72L200,-6Z" fill="rgb(216,175,167)" stroke="rgb(216,175,167)" stroke-width="1.51"/><path d="M76,447L96,593L193,554Z" fill="rgb(160,193,137)" stroke="rgb(160,193,137)" stroke-width="1.51"/><path d="M-57,169L-89,311L57,210Z" fill="rgb(194,188,179)" stroke="rgb(194,188,179)" stroke-width="1.51"/><path d="M193,554L96,593L286,544Z" fill="rgb(161,204,129)" stroke="rgb(161,204,129)" stroke-width="1.51"/><path d="M431,532L646,579L542,517Z" fill="rgb(91,196,128)" stroke="rgb(91,196,128)" stroke-width="1.51"/><path d="M-21,526L96,593L76,447Z" fill="rgb(158,181,144)" stroke="rgb(158,181,144)" stroke-width="1.51"/><path d="M692,89L795,-10L642,-21Z" fill="rgb(157,177,146)" stroke="rgb(157,177,146)" stroke-width="1.51"/><path d="M815,178L755,93L664,165Z" fill="rgb(158,206,131)" stroke="rgb(158,206,131)" stroke-width="1.51"/><path d="M778,277L664,165L680,318Z" fill="rgb(121,208,151)" stroke="rgb(121,208,151)" stroke-width="1.51"/><path d="M787,484L778,277L680,318Z" fill="rgb(91,196,128)" stroke="rgb(91,196,128)" stroke-width="1.51"/><path d="M787,484L680,318L656,395Z" fill="rgb(81,190,118)" stroke="rgb(81,190,118)" stroke-width="1.51"/><path d="M435,-136L521,-176L314,-170Z" fill="rgb(181,187,181)" stroke="rgb(181,187,181)" stroke-width="1.51"/><path d="M633,-153L521,-176L556,-22Z" fill="rgb(160,175,154)" stroke="rgb(160,175,154)" stroke-width="1.51"/><path d="M633,-153L556,-22L642,-21Z" fill="rgb(156,173,149)" stroke="rgb(156,173,149)" stroke-width="1.51"/><path d="M-57,169L-150,284L-89,311Z" fill="rgb(187,188,183)" stroke="rgb(187,188,183)" stroke-width="1.51"/><path d="M-78,-5L-98,119L15,110Z" fill="rgb(215,169,170)" stroke="rgb(215,169,170)" stroke-width="1.51"/><path d="M38,-72L-78,-5L15,110Z" fill="rgb(209,152,179)" stroke="rgb(209,152,179)" stroke-width="1.51"/><path d="M314,-170L78,-145L204,-117Z" fill="rgb(219,185,161)" stroke="rgb(219,185,161)" stroke-width="1.51"/><path d="M-102,479L76,447L39,350Z" fill="rgb(156,174,148)" stroke="rgb(156,174,148)" stroke-width="1.51"/><path d="M542,517L646,579L656,395Z" fill="rgb(80,190,117)" stroke="rgb(80,190,117)" stroke-width="1.51"/><path d="M96,593L646,579L286,544Z" fill="rgb(130,207,147)" stroke="rgb(130,207,147)" stroke-width="1.51"/><path d="M-39,-121L-78,-5L38,-72Z" fill="rgb(208,149,180)" stroke="rgb(208,149,180)" stroke-width="1.51"/><path d="M778,277L815,178L664,165Z" fill="rgb(138,207,142)" stroke="rgb(138,207,142)" stroke-width="1.51"/><path d="M795,-10L692,89L755,93Z" fill="rgb(159,187,140)" stroke="rgb(159,187,140)" stroke-width="1.51"/><path d="M795,-10L633,-153L642,-21Z" fill="rgb(156,173,149)" stroke="rgb(156,173,149)" stroke-width="1.51"/><path d="M-89,311L-102,479L39,350Z" fill="rgb(160,175,154)" stroke="rgb(160,175,154)" stroke-width="1.51"/><path d="M-184,192L-150,284L-57,169Z" fill="rgb(198,187,177)" stroke="rgb(198,187,177)" stroke-width="1.51"/><path d="M-184,192L-57,169L-98,119Z" fill="rgb(213,185,166)" stroke="rgb(213,185,166)" stroke-width="1.51"/><path d="M-174,435L-102,479L-89,311Z" fill="rgb(156,173,149)" stroke="rgb(156,173,149)" stroke-width="1.51"/><path d="M-78,-5L-155,116L-98,119Z" fill="rgb(215,170,169)" stroke="rgb(215,170,169)" stroke-width="1.51"/><path d="M-78,-5L-166,-71L-155,116Z" fill="rgb(210,153,178)" stroke="rgb(210,153,178)" stroke-width="1.51"/><path d="M78,-145L-39,-121L38,-72Z" fill="rgb(210,154,178)" stroke="rgb(210,154,178)" stroke-width="1.51"/><path d="M778,277L787,484L815,178Z" fill="rgb(104,202,141)" stroke="rgb(104,202,141)" stroke-width="1.51"/><path d="M646,579L787,484L656,395Z" fill="rgb(80,190,117)" stroke="rgb(80,190,117)" stroke-width="1.51"/><path d="M815,178L795,-10L755,93Z" fill="rgb(160,194,136)" stroke="rgb(160,194,136)" stroke-width="1.51"/><path d="M-155,116L-184,192L-98,119Z" fill="rgb(217,185,163)" stroke="rgb(217,185,163)" stroke-width="1.51"/><path d="M-150,284L-174,435L-89,311Z" fill="rgb(168,180,164)" stroke="rgb(168,180,164)" stroke-width="1.51"/><path d="M646,579L777,554L787,484Z" fill="rgb(80,190,117)" stroke="rgb(80,190,117)" stroke-width="1.51"/><path d="M-184,192L-174,435L-150,284Z" fill="rgb(176,184,175)" stroke="rgb(176,184,175)" stroke-width="1.51"/><path d="M-174,435L-143,564L-102,479Z" fill="rgb(156,173,149)" stroke="rgb(156,173,149)" stroke-width="1.51"/><path d="M-102,479L-143,564L-21,526Z" fill="rgb(156,173,149)" stroke="rgb(156,173,149)" stroke-width="1.51"/><path d="M-21,526L-143,564L96,593Z" fill="rgb(156,173,149)" stroke="rgb(156,173,149)" stroke-width="1.51"/><path d="M-39,-121L-166,-71L-78,-5Z" fill="rgb(208,149,180)" stroke="rgb(208,149,180)" stroke-width="1.51"/><path d="M-155,116L-166,-71L-184,192Z" fill="rgb(215,170,169)" stroke="rgb(215,170,169)" stroke-width="1.51"/><path d="M815,178L791,-194L795,-10Z" fill="rgb(156,173,149)" stroke="rgb(156,173,149)" stroke-width="1.51"/><path d="M795,-10L791,-194L633,-153Z" fill="rgb(156,173,149)" stroke="rgb(156,173,149)" stroke-width="1.51"/><path d="M633,-153L791,-194L521,-176Z" fill="rgb(156,173,149)" stroke="rgb(156,173,149)" stroke-width="1.51"/><path d="M521,-176L791,-194L314,-170Z" fill="rgb(164,177,159)" stroke="rgb(164,177,159)" stroke-width="1.51"/><path d="M-39,-121L-202,-157L-166,-71Z" fill="rgb(208,149,180)" stroke="rgb(208,149,180)" stroke-width="1.51"/><path d="M-166,-71L-202,-157L-184,192Z" fill="rgb(208,149,180)" stroke="rgb(208,149,180)" stroke-width="1.51"/><path d="M-184,192L-202,-157L-174,435Z" fill="rgb(213,185,166)" stroke="rgb(213,185,166)" stroke-width="1.51"/><path d="M78,-145L-202,-157L-39,-121Z" fill="rgb(208,149,180)" stroke="rgb(208,149,180)" stroke-width="1.51"/><path d="M314,-170L-202,-157L78,-145Z" fill="rgb(212,161,174)" stroke="rgb(212,161,174)" stroke-width="1.51"/><path d="M791,-194L-202,-157L314,-170Z" fill="rgb(202,187,174)" stroke="rgb(202,187,174)" stroke-width="1.51"/></svg>